<svg style="position: absolute; width: 0; height: 0;" width="0" height="0" version="1.1" xmlns="http://www.w3.org/2000/svg" xmlns:xlink="http://www.w3.org/1999/xlink">
<defs>
<symbol id="icon-th-menu" viewBox="0 0 1024 1024">
	<title>th-menu</title>
	<path class="path1" d="M810.667 725.333h-597.333c-47.061 0-85.333 38.272-85.333 85.333s38.272 85.333 85.333 85.333h597.333c47.061 0 85.333-38.272 85.333-85.333s-38.272-85.333-85.333-85.333z"></path>
	<path class="path2" d="M810.667 426.667h-597.333c-47.061 0-85.333 38.272-85.333 85.333s38.272 85.333 85.333 85.333h597.333c47.061 0 85.333-38.272 85.333-85.333s-38.272-85.333-85.333-85.333z"></path>
	<path class="path3" d="M810.667 128h-597.333c-47.061 0-85.333 38.272-85.333 85.333s38.272 85.333 85.333 85.333h597.333c47.061 0 85.333-38.272 85.333-85.333s-38.272-85.333-85.333-85.333z"></path>
</symbol>
<symbol id="icon-infinity" viewBox="0 0 1024 1024">
	<title>infinity</title>
	<path class="path1" d="M701.141 366.763c-49.195 0-95.445 19.157-129.536 53.163l-59.563 57.173-58.667-56.32c-34.773-34.859-81.109-54.016-130.347-54.016s-95.531 19.243-130.261 54.016c-34.859 34.816-54.059 81.067-54.059 130.347 0 49.152 19.157 95.488 54.016 130.261 34.731 34.816 81.024 54.016 130.304 54.016 49.195 0 95.531-19.157 129.536-53.248l59.52-57.088 58.709 56.32c34.773 34.816 81.109 54.016 130.347 54.016s95.488-19.157 130.261-54.016c34.859-34.731 54.059-81.067 54.059-130.347s-19.157-95.488-54.016-130.347c-34.859-34.773-81.109-53.931-130.304-53.931zM377.899 605.909c-29.312 29.355-80.384 29.355-109.739 0-14.677-14.677-22.741-34.176-22.741-54.827 0-20.736 8.064-40.149 22.827-54.912 14.592-14.677 34.091-22.741 54.784-22.741s40.192 8.064 55.68 23.509l56.363 54.187-57.173 54.784zM755.968 605.909c-29.312 29.397-79.616 30.080-110.507-0.768l-56.363-54.187 57.131-54.827c29.355-29.355 80.469-29.355 109.781-0.085 14.677 14.763 22.741 34.176 22.741 54.912s-8.107 40.277-22.784 54.955z"></path>
</symbol>
<symbol id="icon-equals-outline" viewBox="0 0 1024 1024">
	<title>equals-outline</title>
	<path class="path1" d="M768 512h-512c-70.571 0-128-57.429-128-128s57.429-128 128-128h512c70.571 0 128 57.429 128 128s-57.429 128-128 128zM256 341.333c-23.552 0-42.667 19.157-42.667 42.667s19.115 42.667 42.667 42.667h512c23.552 0 42.667-19.157 42.667-42.667s-19.115-42.667-42.667-42.667h-512z"></path>
	<path class="path2" d="M768 810.667h-512c-70.571 0-128-57.429-128-128s57.429-128 128-128h512c70.571 0 128 57.429 128 128s-57.429 128-128 128zM256 640c-23.552 0-42.667 19.157-42.667 42.667s19.115 42.667 42.667 42.667h512c23.552 0 42.667-19.157 42.667-42.667s-19.115-42.667-42.667-42.667h-512z"></path>
</symbol>
<symbol id="icon-th-small-outline" viewBox="0 0 1024 1024">
	<title>th-small-outline</title>
	<path class="path1" d="M256 682.667h-85.333c-47.104 0-85.333 38.229-85.333 85.333v85.333c0 47.104 38.229 85.333 85.333 85.333h85.333c47.104 0 85.333-38.229 85.333-85.333v-85.333c0-47.104-38.229-85.333-85.333-85.333zM256 853.333h-85.333v-85.333h85.333v85.333z"></path>
	<path class="path2" d="M256 384h-85.333c-47.104 0-85.333 38.229-85.333 85.333v85.333c0 47.104 38.229 85.333 85.333 85.333h85.333c47.104 0 85.333-38.229 85.333-85.333v-85.333c0-47.104-38.229-85.333-85.333-85.333zM256 554.667h-85.333v-85.333h85.333v85.333z"></path>
	<path class="path3" d="M256 85.333h-85.333c-47.104 0-85.333 38.229-85.333 85.333v85.333c0 47.104 38.229 85.333 85.333 85.333h85.333c47.104 0 85.333-38.229 85.333-85.333v-85.333c0-47.104-38.229-85.333-85.333-85.333zM256 256h-85.333v-85.333h85.333v85.333z"></path>
	<path class="path4" d="M554.667 682.667h-85.333c-47.104 0-85.333 38.229-85.333 85.333v85.333c0 47.104 38.229 85.333 85.333 85.333h85.333c47.104 0 85.333-38.229 85.333-85.333v-85.333c0-47.104-38.229-85.333-85.333-85.333zM554.667 853.333h-85.333v-85.333h85.333v85.333z"></path>
	<path class="path5" d="M554.667 384h-85.333c-47.104 0-85.333 38.229-85.333 85.333v85.333c0 47.104 38.229 85.333 85.333 85.333h85.333c47.104 0 85.333-38.229 85.333-85.333v-85.333c0-47.104-38.229-85.333-85.333-85.333zM554.667 554.667h-85.333v-85.333h85.333v85.333z"></path>
	<path class="path6" d="M554.667 85.333h-85.333c-47.104 0-85.333 38.229-85.333 85.333v85.333c0 47.104 38.229 85.333 85.333 85.333h85.333c47.104 0 85.333-38.229 85.333-85.333v-85.333c0-47.104-38.229-85.333-85.333-85.333zM554.667 256h-85.333v-85.333h85.333v85.333z"></path>
	<path class="path7" d="M853.333 682.667h-85.333c-47.104 0-85.333 38.229-85.333 85.333v85.333c0 47.104 38.229 85.333 85.333 85.333h85.333c47.104 0 85.333-38.229 85.333-85.333v-85.333c0-47.104-38.229-85.333-85.333-85.333zM853.333 853.333h-85.333v-85.333h85.333v85.333z"></path>
	<path class="path8" d="M853.333 384h-85.333c-47.104 0-85.333 38.229-85.333 85.333v85.333c0 47.104 38.229 85.333 85.333 85.333h85.333c47.104 0 85.333-38.229 85.333-85.333v-85.333c0-47.104-38.229-85.333-85.333-85.333zM853.333 554.667h-85.333v-85.333h85.333v85.333z"></path>
	<path class="path9" d="M853.333 85.333h-85.333c-47.104 0-85.333 38.229-85.333 85.333v85.333c0 47.104 38.229 85.333 85.333 85.333h85.333c47.104 0 85.333-38.229 85.333-85.333v-85.333c0-47.104-38.229-85.333-85.333-85.333zM853.333 256h-85.333v-85.333h85.333v85.333z"></path>
</symbol>
<symbol id="icon-th-menu-outline" viewBox="0 0 1024 1024">
	<title>th-menu-outline</title>
	<path class="path1" d="M810.667 768c23.467 0 42.667 19.2 42.667 42.667s-19.2 42.667-42.667 42.667h-597.333c-23.467 0-42.667-19.2-42.667-42.667s19.2-42.667 42.667-42.667h597.333zM810.667 682.667h-597.333c-70.571 0-128 57.429-128 128s57.429 128 128 128h597.333c70.571 0 128-57.429 128-128s-57.429-128-128-128z"></path>
	<path class="path2" d="M810.667 469.333c23.467 0 42.667 19.2 42.667 42.667s-19.2 42.667-42.667 42.667h-597.333c-23.467 0-42.667-19.2-42.667-42.667s19.2-42.667 42.667-42.667h597.333zM810.667 384h-597.333c-70.571 0-128 57.429-128 128s57.429 128 128 128h597.333c70.571 0 128-57.429 128-128s-57.429-128-128-128z"></path>
	<path class="path3" d="M810.667 170.667c23.467 0 42.667 19.2 42.667 42.667s-19.2 42.667-42.667 42.667h-597.333c-23.467 0-42.667-19.2-42.667-42.667s19.2-42.667 42.667-42.667h597.333zM810.667 85.333h-597.333c-70.571 0-128 57.429-128 128s57.429 128 128 128h597.333c70.571 0 128-57.429 128-128s-57.429-128-128-128z"></path>
</symbol>
<symbol id="icon-th-list-outline" viewBox="0 0 1024 1024">
	<title>th-list-outline</title>
	<path class="path1" d="M810.667 768c23.467 0 42.667 19.2 42.667 42.667s-19.2 42.667-42.667 42.667h-298.667c-23.467 0-42.667-19.2-42.667-42.667s19.2-42.667 42.667-42.667h298.667zM810.667 682.667h-298.667c-70.571 0-128 57.429-128 128s57.429 128 128 128h298.667c70.571 0 128-57.429 128-128s-57.429-128-128-128z"></path>
	<path class="path2" d="M810.667 469.333c23.467 0 42.667 19.2 42.667 42.667s-19.2 42.667-42.667 42.667h-298.667c-23.467 0-42.667-19.2-42.667-42.667s19.2-42.667 42.667-42.667h298.667zM810.667 384h-298.667c-70.571 0-128 57.429-128 128s57.429 128 128 128h298.667c70.571 0 128-57.429 128-128s-57.429-128-128-128z"></path>
	<path class="path3" d="M810.667 170.667c23.467 0 42.667 19.2 42.667 42.667s-19.2 42.667-42.667 42.667h-298.667c-23.467 0-42.667-19.2-42.667-42.667s19.2-42.667 42.667-42.667h298.667zM810.667 85.333h-298.667c-70.571 0-128 57.429-128 128s57.429 128 128 128h298.667c70.571 0 128-57.429 128-128s-57.429-128-128-128z"></path>
	<path class="path4" d="M256 682.667h-85.333c-47.104 0-85.333 38.229-85.333 85.333v85.333c0 47.104 38.229 85.333 85.333 85.333h85.333c47.104 0 85.333-38.229 85.333-85.333v-85.333c0-47.104-38.229-85.333-85.333-85.333zM256 853.333h-85.333v-85.333h85.333v85.333z"></path>
	<path class="path5" d="M256 384h-85.333c-47.104 0-85.333 38.229-85.333 85.333v85.333c0 47.104 38.229 85.333 85.333 85.333h85.333c47.104 0 85.333-38.229 85.333-85.333v-85.333c0-47.104-38.229-85.333-85.333-85.333zM256 554.667h-85.333v-85.333h85.333v85.333z"></path>
	<path class="path6" d="M256 85.333h-85.333c-47.104 0-85.333 38.229-85.333 85.333v85.333c0 47.104 38.229 85.333 85.333 85.333h85.333c47.104 0 85.333-38.229 85.333-85.333v-85.333c0-47.104-38.229-85.333-85.333-85.333zM256 256h-85.333v-85.333h85.333v85.333z"></path>
</symbol>
<symbol id="icon-media-pause-outline" viewBox="0 0 1024 1024">
	<title>media-pause-outline</title>
	<path class="path1" d="M341.333 853.333c-70.571 0-128-57.429-128-128v-384c0-70.571 57.429-128 128-128s128 57.429 128 128v384c0 70.571-57.429 128-128 128zM341.333 298.667c-23.552 0-42.667 19.157-42.667 42.667v384c0 23.509 19.115 42.667 42.667 42.667s42.667-19.157 42.667-42.667v-384c0-23.509-19.115-42.667-42.667-42.667z"></path>
	<path class="path2" d="M640 853.333c-70.571 0-128-57.429-128-128v-384c0-70.571 57.429-128 128-128s128 57.429 128 128v384c0 70.571-57.429 128-128 128zM640 298.667c-23.552 0-42.667 19.157-42.667 42.667v384c0 23.509 19.115 42.667 42.667 42.667s42.667-19.157 42.667-42.667v-384c0-23.509-19.115-42.667-42.667-42.667z"></path>
</symbol>
<symbol id="icon-cog-outline" viewBox="0 0 1024 1024">
	<title>cog-outline</title>
	<path class="path1" d="M554.667 213.333l36.48 145.92 144.597-41.429 64.043 110.933-108.16 104.491 108.16 104.576-64 110.933-144.64-41.429-36.48 146.005h-128l-36.48-146.005-144.64 41.429-64.043-110.933 108.16-104.576-108.117-104.491 64-110.933 144.64 41.429 36.48-145.92h128zM554.667 128h-128c-39.168 0-73.301 26.667-82.731 64.683l-15.104 60.245-59.733-17.067c-7.851-2.261-15.744-3.328-23.552-3.328-29.867 0-58.368 15.787-73.856 42.667l-64 110.933c-19.584 33.963-13.525 76.885 14.592 104.021l44.672 43.136-44.715 43.307c-28.16 27.179-34.219 70.101-14.635 104.021l64.085 110.933c15.488 26.923 43.989 42.667 73.856 42.667 7.808 0 15.701-1.067 23.552-3.243l59.691-17.109 15.104 60.373c9.472 37.76 43.605 64.427 82.773 64.427h128c39.168 0 73.301-26.667 82.731-64.683l15.104-60.331 59.691 17.067c7.851 2.261 15.744 3.285 23.552 3.285 29.867 0 58.368-15.787 73.856-42.667l64-110.933c19.584-33.963 13.525-76.8-14.592-104.021l-44.672-43.221 44.672-43.221c28.16-27.179 34.176-70.144 14.592-104.021l-64-110.933c-15.573-26.923-43.989-42.667-73.899-42.667-7.851 0-15.701 1.067-23.509 3.243l-59.733 17.109-15.104-60.288c-9.387-37.717-43.52-64.384-82.688-64.384z"></path>
	<path class="path2" d="M490.667 448c47.104 0 85.333 38.187 85.333 85.333 0 47.104-38.229 85.333-85.333 85.333s-85.333-38.229-85.333-85.333c0-47.147 38.229-85.333 85.333-85.333zM490.667 405.333c-70.571 0-128 57.429-128 128s57.429 128 128 128 128-57.429 128-128-57.429-128-128-128z"></path>
</symbol>
<symbol id="icon-comment-stroke" viewBox="0 0 1024 1024">
	<title>comment-stroke</title>
	<path class="path1" d="M640 192c141.248 0 256 114.752 256 256s-114.752 256-256 256h-256c-83.488 0-157.888 40.256-204.64 102.496-31.104-23.488-51.36-60.736-51.36-102.496v-320c0-105.888 86.24-192 192-192h320zM640 64h-320c-176.736 0-320 143.264-320 320v320c0 141.376 114.752 256 256 256 0-70.752 57.376-128 128-128h256c212.128 0 384-172 384-384s-171.872-384-384-384v0z"></path>
</symbol>
<symbol id="icon-wrench" viewBox="0 0 1022 1024">
	<title>wrench</title>
	<path class="path1" d="M1011.424 180.576l-160.736 160.736h-168v-170.624l158.752-158.688c-23.488-7.072-47.744-12-73.504-12-141.312 0-255.936 114.688-255.936 256 0 39.424 9.632 76.32 25.632 109.76l-512.64 512.48c-15.36 15.52-24.992 36.768-24.992 60.512 0 47.008 38.112 85.248 85.376 85.248 23.616 0 44.992-9.504 60.256-24.992l512.736-512.576c33.312 15.872 70.304 25.568 109.568 25.568 141.504 0 256-114.688 256-256 0-26.432-4.992-51.424-12.512-75.424z"></path>
</symbol>
<symbol id="icon-cog" viewBox="0 0 1024 1024">
	<title>cog</title>
	<path class="path1" d="M1024 575.008v-128l-152.992-63.744c-4.256-12-8.736-23.616-14.24-35.008l61.76-153.76-90.528-90.496-152.384 62.752c-11.616-5.632-23.488-10.368-35.744-14.752l-64.864-152h-128l-63.264 151.488c-12.736 4.512-24.992 9.248-37.12 15.008l-152.128-61.12-90.496 90.496 62.016 150.752c-6.016 12.384-10.88 24.992-15.52 38.016l-150.496 64.352v128l150.624 62.752c4.64 12.992 9.632 25.632 15.616 38.016l-60.864 151.744 90.496 90.496 151.136-62.24c12.128 5.76 24.512 10.368 37.248 14.752l64.736 151.488h128l63.36-152.256c12.128-4.512 24.128-9.248 35.616-14.752l153.504 61.504 90.496-90.496-63.008-152.736c5.376-11.488 9.76-23.136 14.016-35.008l153.024-65.248zM511.008 704c-105.984 0-192-86.016-192-192s86.016-192 192-192 192 86.016 192 192-86.016 192-192 192z"></path>
</symbol>
<symbol id="icon-spin" viewBox="0 0 896 1024">
	<title>spin</title>
	<path class="path1" d="M764.256 194.752l-90.24 90.624c60.48 60.512 93.984 140.992 93.984 226.624 0 176.512-143.488 320-320 320v-64l-128 128 128 128v-64c247.008 0 448-200.992 448-448 0-119.872-46.752-232.512-131.744-317.248zM576 128l-128-128v64c-247.008 0-448 200.992-448 448 0 119.872 46.752 232.512 131.744 317.248l90.24-90.624c-60.48-60.512-93.984-140.992-93.984-226.624 0-176.512 143.488-320 320-320v64l128-128z"></path>
</symbol>
<symbol id="icon-arrow-left-alt1" viewBox="0 0 1024 1024">
	<title>arrow-left-alt1</title>
	<path class="path1" d="M1024 512c0-282.752-229.248-512-512-512-282.784 0-512 229.248-512 512 0 282.784 229.216 512 512 512 282.752 0 512-229.216 512-512zM256 512l256-256v192h256v128h-256v192l-256-256z"></path>
</symbol>
<symbol id="icon-list" viewBox="0 0 1170 1024">
	<title>list</title>
	<path class="path1" d="M0 73.138c0-40.393 32.745-73.138 73.138-73.138s73.138 32.745 73.138 73.138c0 40.393-32.745 73.138-73.138 73.138s-73.138-32.745-73.138-73.138zM0 365.728c0-40.393 32.745-73.138 73.138-73.138s73.138 32.745 73.138 73.138c0 40.393-32.745 73.138-73.138 73.138s-73.138-32.745-73.138-73.138zM0 658.282c0-40.393 32.745-73.138 73.138-73.138s73.138 32.745 73.138 73.138c0 40.393-32.745 73.138-73.138 73.138s-73.138-32.745-73.138-73.138zM0 950.87c0-40.393 32.745-73.138 73.138-73.138s73.138 32.745 73.138 73.138c0 40.393-32.745 73.138-73.138 73.138s-73.138-32.745-73.138-73.138zM292.59 0h877.622v146.276h-877.622zM292.59 292.59h877.622v146.276h-877.622zM292.59 585.142h877.622v146.278h-877.622zM292.59 877.732h877.622v146.278h-877.622z"></path>
</symbol>
<symbol id="icon-aperture" viewBox="0 0 1024 1024">
	<title>aperture</title>
	<path class="path1" d="M677.504 447.36l182.112-309.248c-91.36-85.056-212.864-138.112-347.616-138.112-31.936 0-62.88 3.808-93.184 9.376l258.688 437.984zM638.496 640h367.36c10.656-41.12 18.144-83.488 18.144-128 0-123.936-45.76-236.064-119.136-324.64l-266.368 452.64zM528 320l-173.056-292.864c-144 46.688-260.448 153.536-316.928 292.864h489.984zM500.256 704l172.512 291.744c142.368-47.488 257.248-153.632 313.248-291.744h-485.76zM387.36 384h-369.248c-10.688 41.12-18.112 83.488-18.112 128 0 124.512 46.24 237.12 120.192 326.016l267.168-454.016zM349.376 574.752l-183.808 312.256c91.296 84.256 212.32 136.992 346.432 136.992 33.312 0 65.76-3.744 97.248-9.76l-259.872-439.488z"></path>
</symbol>
<symbol id="icon-aperture-alt" viewBox="0 0 1024 1024">
	<title>aperture-alt</title>
	<path class="path1" d="M969.888 287.136l-319.136 319.136h363.744c5.76-30.784 9.504-62.016 9.504-94.272 0-81.056-20.512-156.736-54.112-224.864zM673.76 487.68l262.496-262.368c-62.496-92.128-155.008-160.672-262.496-196.672v459.040zM535.936 673.76l262.56 262.624c92.256-62.368 160.864-155.008 196.864-262.624h-459.424zM606.176 375.808v-366.304c-30.624-5.696-61.92-9.504-94.176-9.504-81.76 0-158.016 20.928-226.56 55.072l320.736 320.736zM417.824 651.264v363.264c30.624 5.728 61.92 9.472 94.176 9.472 80.992 0 156.512-20.512 224.64-54.016l-318.816-318.72zM350.176 536.736l-262.176 262.144c62.368 92 154.816 160.512 262.176 196.512v-458.656zM9.504 417.824c-5.696 30.624-9.504 61.92-9.504 94.176 0 81.248 20.64 156.992 54.24 225.12l319.328-319.328h-364.064zM223.872 88.992c-91.36 62.368-159.424 154.336-195.232 261.184h456.448l-261.216-261.184z"></path>
</symbol>
<symbol id="icon-user" viewBox="0 0 768 1024">
	<title>user</title>
	<path class="path1" d="M384 512c-212 0-384 172-384 384 0 70.752 57.248 128 128 128h512c70.752 0 128-57.248 128-128 0-212-172-384-384-384zM192 192c0-106.039 85.961-192 192-192s192 85.961 192 192c0 106.039-85.961 192-192 192s-192-85.961-192-192z"></path>
</symbol>
<symbol id="icon-map-pin-stroke" viewBox="0 0 640 1024">
	<title>map-pin-stroke</title>
	<path class="path1" d="M320 128c51.264 0 99.488 20 135.744 56.32 36.256 36.192 56.256 84.416 56.256 135.68s-20 99.488-55.36 134.816c-5.376 5.312-71.616 71.2-136.64 174.112-64.736-102.752-130.752-168.384-135.744-173.248-36.256-36.192-56.256-84.416-56.256-135.68s20-99.488 56.256-135.744 84.48-56.256 135.744-56.256zM320 0c-81.888 0-163.744 31.264-226.24 93.76-124.992 124.928-124.992 327.552 0 452.512 0-0.032 226.24 221.728 226.24 477.728 0-256 226.24-477.76 226.24-477.76 124.992-124.928 124.992-327.552 0-452.512-62.496-62.464-144.352-93.728-226.24-93.728v0zM256 320c0-35.346 28.654-64 64-64s64 28.654 64 64c0 35.346-28.654 64-64 64s-64-28.654-64-64z"></path>
</symbol>
<symbol id="icon-map-pin-fill" viewBox="0 0 640 1024">
	<title>map-pin-fill</title>
	<path class="path1" d="M546.24 93.76c-124.992-124.992-327.488-124.992-452.512 0-124.992 124.928-124.992 327.616 0 452.48 0.032 0 226.272 221.76 226.272 477.76 0-256 226.24-477.76 226.24-477.76 125.024-124.864 125.024-327.552 0-452.48zM320 448c-70.752 0-128-57.248-128-128s57.248-128 128-128 128 57.248 128 128-57.248 128-128 128z"></path>
</symbol>
<symbol id="icon-map-pin-alt" viewBox="0 0 512 1024">
	<title>map-pin-alt</title>
	<path class="path1" d="M256 0c-141.376 0-256 114.624-256 256s256 768 256 768 256-626.624 256-768-114.624-256-256-256zM256 384c-70.688 0-128-57.312-128-128s57.312-128 128-128 128 57.312 128 128-57.312 128-128 128z"></path>
</symbol>
<symbol id="icon-download" viewBox="0 0 768 1024">
	<title>download</title>
	<path class="path1" d="M0 896h768v128h-768zM512 576v-576h-256v576h-128l256 320 256-320z"></path>
</symbol>
<symbol id="icon-upload" viewBox="0 0 768 1024">
	<title>upload</title>
	<path class="path1" d="M0 0h768v128h-768zM256 448v576h256v-576h128l-256-320-256 320z"></path>
</symbol>
<symbol id="icon-cloud-download" viewBox="0 0 1024 1024">
	<title>cloud-download</title>
	<path class="path1" d="M768 128c-12 0-23.616 1.888-35.264 3.616-44.608-78.976-127.104-131.616-220.736-131.616-95.616 0-178.176 53.376-222.112 131.136-11.264-1.504-22.464-3.136-33.888-3.136-141.184 0-256 114.88-256 256s114.816 256 256 256h192v192h-128l192 192 192-192h-128v-192h192c141.248 0 256-114.88 256-256s-114.752-256-256-256zM768 512h-512c-70.56 0-128-57.376-128-128 0-70.112 62.176-124.384 128.128-126.24 0.256 30.112 5.504 59.872 16 87.872l119.872-44.992c-5.312-14.144-8-29.28-8-44.64 0-70.624 57.44-128 128-128 41.44 0 78.816 20.512 102.496 52.384-61.856 46.752-102.496 120.256-102.496 203.616h128c0-70.624 57.504-128 128-128s128 57.376 128 128-57.504 128-128 128z"></path>
</symbol>
<symbol id="icon-cloud-upload" viewBox="0 0 1024 1024">
	<title>cloud-upload</title>
	<path class="path1" d="M768 128c-12 0-23.616 1.984-35.264 3.488-44.608-78.752-127.104-131.488-220.736-131.488-95.616 0-178.176 53.248-222.112 131.264-11.264-1.504-22.464-3.264-33.888-3.264-141.184 0-256 114.752-256 256s114.816 256 256 256h512c141.248 0 256-114.752 256-256s-114.752-256-256-256zM768 512h-512c-70.56 0-128-57.504-128-128 0-70.24 62.176-124.256 128.128-126.24 0.256 30.24 5.504 59.744 16 87.744l119.872-44.736c-5.312-14.272-8-29.28-8-44.768 0-70.496 57.44-128 128-128 41.44 0 78.816 20.512 102.496 52.512-61.856 46.752-102.496 120.128-102.496 203.488h128c0-70.496 57.504-128 128-128s128 57.504 128 128-57.504 128-128 128zM512 640l-192 192h128v192h128v-192h128z"></path>
</symbol>
<symbol id="icon-pencil" viewBox="0 0 1024 1024">
	<title>pencil</title>
	<path class="path1" d="M864 0c88.364 0 160 71.634 160 160 0 36.020-11.91 69.258-32 96l-64 64-224-224 64-64c26.742-20.090 59.978-32 96-32zM64 736l-64 288 288-64 592-592-224-224-592 592zM715.578 363.578l-448 448-55.156-55.156 448-448 55.156 55.156z"></path>
</symbol>
<symbol id="icon-qrcode" viewBox="0 0 1024 1024">
	<title>qrcode</title>
	<path class="path1" d="M320 64h-256v256h256v-256zM384 0v0 384h-384v-384h384zM128 128h128v128h-128zM960 64h-256v256h256v-256zM1024 0v0 384h-384v-384h384zM768 128h128v128h-128zM320 704h-256v256h256v-256zM384 640v0 384h-384v-384h384zM128 768h128v128h-128zM448 0h64v64h-64zM512 64h64v64h-64zM448 128h64v64h-64zM512 192h64v64h-64zM448 256h64v64h-64zM512 320h64v64h-64zM448 384h64v64h-64zM448 512h64v64h-64zM512 576h64v64h-64zM448 640h64v64h-64zM512 704h64v64h-64zM448 768h64v64h-64zM512 832h64v64h-64zM448 896h64v64h-64zM512 960h64v64h-64zM960 512h64v64h-64zM64 512h64v64h-64zM128 448h64v64h-64zM0 448h64v64h-64zM256 448h64v64h-64zM320 512h64v64h-64zM384 448h64v64h-64zM576 512h64v64h-64zM640 448h64v64h-64zM704 512h64v64h-64zM768 448h64v64h-64zM832 512h64v64h-64zM896 448h64v64h-64zM960 640h64v64h-64zM576 640h64v64h-64zM640 576h64v64h-64zM704 640h64v64h-64zM832 640h64v64h-64zM896 576h64v64h-64zM960 768h64v64h-64zM576 768h64v64h-64zM640 704h64v64h-64zM768 704h64v64h-64zM832 768h64v64h-64zM896 704h64v64h-64zM960 896h64v64h-64zM640 832h64v64h-64zM704 896h64v64h-64zM768 832h64v64h-64zM832 896h64v64h-64zM640 960h64v64h-64zM768 960h64v64h-64zM896 960h64v64h-64z"></path>
</symbol>
<symbol id="icon-compass2" viewBox="0 0 1024 1024">
	<title>compass2</title>
	<path class="path1" d="M512 0c-282.77 0-512 229.23-512 512s229.23 512 512 512 512-229.23 512-512-229.23-512-512-512zM96 512c0-229.75 186.25-416 416-416 109.574 0 209.232 42.386 283.534 111.628l-411.534 176.372-176.372 411.534c-69.242-74.302-111.628-173.96-111.628-283.534zM585.166 585.166l-256.082 109.75 109.75-256.082 146.332 146.332zM512 928c-109.574 0-209.234-42.386-283.532-111.628l411.532-176.372 176.372-411.532c69.242 74.298 111.628 173.958 111.628 283.532 0 229.75-186.25 416-416 416z"></path>
</symbol>
<symbol id="icon-clock" viewBox="0 0 1024 1024">
	<title>clock</title>
	<path class="path1" d="M658.744 749.256l-210.744-210.746v-282.51h128v229.49l173.256 173.254zM512 0c-282.77 0-512 229.23-512 512s229.23 512 512 512 512-229.23 512-512-229.23-512-512-512zM512 896c-212.078 0-384-171.922-384-384s171.922-384 384-384c212.078 0 384 171.922 384 384s-171.922 384-384 384z"></path>
</symbol>
<symbol id="icon-undo2" viewBox="0 0 1024 1024">
	<title>undo2</title>
	<path class="path1" d="M761.862 1024c113.726-206.032 132.888-520.306-313.862-509.824v253.824l-384-384 384-384v248.372c534.962-13.942 594.57 472.214 313.862 775.628z"></path>
</symbol>
<symbol id="icon-redo2" viewBox="0 0 1024 1024">
	<title>redo2</title>
	<path class="path1" d="M576 248.372v-248.372l384 384-384 384v-253.824c-446.75-10.482-427.588 303.792-313.86 509.824-280.712-303.414-221.1-789.57 313.86-775.628z"></path>
</symbol>
<symbol id="icon-forward" viewBox="0 0 1024 1024">
	<title>forward</title>
	<path class="path1" d="M262.14 0c-113.728 206.032-132.89 520.304 313.86 509.824v-253.824l384 384-384 384v-248.372c-534.96 13.942-594.572-472.214-313.86-775.628z"></path>
</symbol>
<symbol id="icon-reply" viewBox="0 0 1024 1024">
	<title>reply</title>
	<path class="path1" d="M448 775.628v248.372l-384-384 384-384v253.824c446.75 10.48 427.588-303.792 313.862-509.824 280.71 303.414 221.1 789.57-313.862 775.628z"></path>
</symbol>
<symbol id="icon-bubbles" viewBox="0 0 1152 1024">
	<title>bubbles</title>
	<path class="path1" d="M1088 901.166c0 45.5 26.028 84.908 64 104.184v15.938c-10.626 1.454-21.472 2.224-32.5 2.224-68.008 0-129.348-28.528-172.722-74.264-26.222 6.982-54.002 10.752-82.778 10.752-159.058 0-288-114.616-288-256s128.942-256 288-256c159.058 0 288 114.616 288 256 0 55.348-19.764 106.592-53.356 148.466-6.824 14.824-10.644 31.312-10.644 48.7zM512 0c278.458 0 504.992 180.614 511.836 405.52-49.182-21.92-103.586-33.52-159.836-33.52-95.56 0-185.816 33.446-254.138 94.178-70.846 62.972-109.862 147.434-109.862 237.822 0 44.672 9.544 87.888 27.736 127.788-5.228 0.126-10.468 0.212-15.736 0.212-27.156 0-53.81-1.734-79.824-5.044-109.978 109.978-241.25 129.7-368.176 132.596v-26.916c68.536-33.578 128-94.74 128-164.636 0-9.754-0.758-19.33-2.164-28.696-115.796-76.264-189.836-192.754-189.836-323.304 0-229.75 229.23-416 512-416z"></path>
</symbol>
<symbol id="icon-users" viewBox="0 0 1152 1024">
	<title>users</title>
	<path class="path1" d="M768 770.612v-52.78c70.498-39.728 128-138.772 128-237.832 0-159.058 0-288-192-288s-192 128.942-192 288c0 99.060 57.502 198.104 128 237.832v52.78c-217.102 17.748-384 124.42-384 253.388h896c0-128.968-166.898-235.64-384-253.388z"></path>
	<path class="path2" d="M327.196 795.328c55.31-36.15 124.080-63.636 199.788-80.414-15.054-17.784-28.708-37.622-40.492-59.020-30.414-55.234-46.492-116.058-46.492-175.894 0-86.042 0-167.31 30.6-233.762 29.706-64.504 83.128-104.496 159.222-119.488-16.914-76.48-61.94-126.75-181.822-126.75-192 0-192 128.942-192 288 0 99.060 57.502 198.104 128 237.832v52.78c-217.102 17.748-384 124.42-384 253.388h279.006c14.518-12.91 30.596-25.172 48.19-36.672z"></path>
</symbol>
<symbol id="icon-spinner" viewBox="0 0 1024 1024">
	<title>spinner</title>
	<path class="path1" d="M384 128c0-70.692 57.308-128 128-128s128 57.308 128 128c0 70.692-57.308 128-128 128s-128-57.308-128-128zM655.53 240.47c0-70.692 57.308-128 128-128s128 57.308 128 128c0 70.692-57.308 128-128 128s-128-57.308-128-128zM832 512c0-35.346 28.654-64 64-64s64 28.654 64 64c0 35.346-28.654 64-64 64s-64-28.654-64-64zM719.53 783.53c0-35.346 28.654-64 64-64s64 28.654 64 64c0 35.346-28.654 64-64 64s-64-28.654-64-64zM448.002 896c0 0 0 0 0 0 0-35.346 28.654-64 64-64s64 28.654 64 64c0 0 0 0 0 0 0 35.346-28.654 64-64 64s-64-28.654-64-64zM176.472 783.53c0 0 0 0 0 0 0-35.346 28.654-64 64-64s64 28.654 64 64c0 0 0 0 0 0 0 35.346-28.654 64-64 64s-64-28.654-64-64zM144.472 240.47c0 0 0 0 0 0 0-53.019 42.981-96 96-96s96 42.981 96 96c0 0 0 0 0 0 0 53.019-42.981 96-96 96s-96-42.981-96-96zM56 512c0-39.765 32.235-72 72-72s72 32.235 72 72c0 39.765-32.235 72-72 72s-72-32.235-72-72z"></path>
</symbol>
<symbol id="icon-spinner2" viewBox="0 0 1024 1024">
	<title>spinner2</title>
	<path class="path1" d="M1024 512c-1.278-66.862-15.784-133.516-42.576-194.462-26.704-61-65.462-116.258-113.042-161.92-47.552-45.696-103.944-81.82-164.984-105.652-61.004-23.924-126.596-35.352-191.398-33.966-64.81 1.282-129.332 15.374-188.334 41.356-59.048 25.896-112.542 63.47-156.734 109.576-44.224 46.082-79.16 100.708-102.186 159.798-23.114 59.062-34.128 122.52-32.746 185.27 1.286 62.76 14.964 125.148 40.134 182.206 25.088 57.1 61.476 108.828 106.11 151.548 44.61 42.754 97.472 76.504 154.614 98.72 57.118 22.304 118.446 32.902 179.142 31.526 60.708-1.29 120.962-14.554 176.076-38.914 55.15-24.282 105.116-59.48 146.366-102.644 41.282-43.14 73.844-94.236 95.254-149.43 13.034-33.458 21.88-68.4 26.542-103.798 1.246 0.072 2.498 0.12 3.762 0.12 35.346 0 64-28.652 64-64 0-1.796-0.094-3.572-0.238-5.332h0.238zM922.306 681.948c-23.472 53.202-57.484 101.4-99.178 141.18-41.67 39.81-91 71.186-144.244 91.79-53.228 20.678-110.29 30.452-166.884 29.082-56.604-1.298-112.596-13.736-163.82-36.474-51.25-22.666-97.684-55.49-135.994-95.712-38.338-40.198-68.528-87.764-88.322-139.058-19.87-51.284-29.228-106.214-27.864-160.756 1.302-54.552 13.328-108.412 35.254-157.69 21.858-49.3 53.498-93.97 92.246-130.81 38.73-36.868 84.53-65.87 133.874-84.856 49.338-19.060 102.136-28.006 154.626-26.644 52.5 1.306 104.228 12.918 151.562 34.034 47.352 21.050 90.256 51.502 125.624 88.782 35.396 37.258 63.21 81.294 81.39 128.688 18.248 47.392 26.782 98.058 25.424 148.496h0.238c-0.144 1.76-0.238 3.536-0.238 5.332 0 33.012 24.992 60.174 57.086 63.624-6.224 34.822-16.53 68.818-30.78 100.992z"></path>
</symbol>
<symbol id="icon-spinner3" viewBox="0 0 1024 1024">
	<title>spinner3</title>
	<path class="path1" d="M512 303.096c-32.964 0-59.686-26.724-59.686-59.686v-179.060c0-32.964 26.722-59.686 59.686-59.686 32.962 0 59.688 26.722 59.688 59.686v179.060c0 32.964-26.726 59.686-59.688 59.686z"></path>
	<path class="path2" d="M512 996.956c-20.602 0-37.304-16.702-37.304-37.304v-179.060c0-20.602 16.702-37.304 37.304-37.304 20.604 0 37.304 16.704 37.304 37.304v179.060c0 20.602-16.7 37.304-37.304 37.304z"></path>
	<path class="path3" d="M377.756 335.36c-19.34 0-38.146-10.034-48.512-27.988l-89.53-155.070c-15.452-26.764-6.282-60.986 20.482-76.438 26.762-15.45 60.986-6.284 76.438 20.482l89.53 155.072c15.452 26.764 6.282 60.986-20.482 76.438-8.81 5.084-18.432 7.504-27.926 7.504z"></path>
	<path class="path4" d="M735.856 933.256c-11.602 0-22.886-6.022-29.108-16.792l-89.53-155.070c-9.27-16.056-3.77-36.592 12.29-45.864 16.056-9.264 36.59-3.77 45.864 12.292l89.532 155.068c9.27 16.058 3.768 36.592-12.292 45.864-5.286 3.048-11.060 4.502-16.756 4.502z"></path>
	<path class="path5" d="M279.344 429.94c-8.86 0-17.838-2.256-26.064-7.006l-155.072-89.53c-24.978-14.422-33.538-46.362-19.116-71.342 14.42-24.978 46.364-33.538 71.342-19.116l155.070 89.53c24.98 14.422 33.538 46.362 19.116 71.34-9.668 16.756-27.226 26.124-45.276 26.124z"></path>
	<path class="path6" d="M899.648 765.674c-5.064 0-10.196-1.29-14.894-4.004l-155.068-89.53c-14.274-8.24-19.164-26.494-10.924-40.768 8.242-14.276 26.496-19.166 40.766-10.924l155.070 89.532c14.274 8.24 19.164 26.492 10.924 40.766-5.53 9.574-15.562 14.928-25.874 14.928z"></path>
	<path class="path7" d="M243.41 560.496h-179.060c-26.784 0-48.496-21.712-48.496-48.496s21.712-48.496 48.496-48.496h179.060c26.784 0 48.496 21.712 48.496 48.496s-21.712 48.496-48.496 48.496z"></path>
	<path class="path8" d="M959.65 541.844c-0.002 0 0 0 0 0h-179.060c-16.482-0.002-29.844-13.364-29.844-29.844s13.364-29.844 29.844-29.844c0.002 0 0 0 0 0h179.060c16.482 0 29.844 13.362 29.844 29.844 0 16.48-13.364 29.844-29.844 29.844z"></path>
	<path class="path9" d="M124.366 780.598c-15.472 0-30.518-8.028-38.81-22.39-12.362-21.41-5.026-48.79 16.384-61.148l155.072-89.532c21.41-12.368 48.79-5.028 61.15 16.384 12.362 21.412 5.026 48.79-16.384 61.15l-155.072 89.53c-7.050 4.070-14.748 6.006-22.34 6.006z"></path>
	<path class="path10" d="M744.632 407.552c-10.314 0-20.346-5.352-25.874-14.926-8.24-14.274-3.35-32.526 10.924-40.768l155.070-89.528c14.272-8.236 32.526-3.352 40.768 10.922 8.24 14.274 3.35 32.526-10.924 40.768l-155.070 89.528c-4.7 2.714-9.83 4.004-14.894 4.004z"></path>
	<path class="path11" d="M288.136 940.716c-6.962 0-14.016-1.774-20.48-5.504-19.626-11.332-26.35-36.428-15.020-56.054l89.53-155.070c11.33-19.628 36.426-26.352 56.054-15.022 19.626 11.332 26.35 36.43 15.020 56.054l-89.53 155.072c-7.598 13.166-21.392 20.524-35.574 20.524z"></path>
	<path class="path12" d="M646.266 309.242c-5.062 0-10.196-1.29-14.894-4.002-14.274-8.242-19.164-26.494-10.924-40.766l89.534-155.070c8.24-14.274 26.492-19.166 40.766-10.922 14.274 8.242 19.164 26.494 10.924 40.766l-89.532 155.070c-5.53 9.57-15.56 14.924-25.874 14.924z"></path>
</symbol>
<symbol id="icon-spinner6" viewBox="0 0 1024 1024">
	<title>spinner6</title>
	<path class="path1" d="M384 128c0-70.692 57.308-128 128-128s128 57.308 128 128c0 70.692-57.308 128-128 128s-128-57.308-128-128zM790.994 512c0 0 0 0 0 0 0-57.993 47.013-105.006 105.006-105.006s105.006 47.013 105.006 105.006c0 0 0 0 0 0 0 57.993-47.013 105.006-105.006 105.006s-105.006-47.013-105.006-105.006zM688.424 783.53c0-52.526 42.58-95.106 95.106-95.106s95.106 42.58 95.106 95.106c0 52.526-42.58 95.106-95.106 95.106s-95.106-42.58-95.106-95.106zM425.862 896c0-47.573 38.565-86.138 86.138-86.138s86.138 38.565 86.138 86.138c0 47.573-38.565 86.138-86.138 86.138s-86.138-38.565-86.138-86.138zM162.454 783.53c0-43.088 34.93-78.018 78.018-78.018s78.018 34.93 78.018 78.018c0 43.088-34.93 78.018-78.018 78.018s-78.018-34.93-78.018-78.018zM57.338 512c0-39.026 31.636-70.662 70.662-70.662s70.662 31.636 70.662 70.662c0 39.026-31.636 70.662-70.662 70.662s-70.662-31.636-70.662-70.662zM176.472 240.472c0 0 0 0 0 0 0-35.346 28.654-64 64-64s64 28.654 64 64c0 0 0 0 0 0 0 35.346-28.654 64-64 64s-64-28.654-64-64zM899.464 240.472c0 64.024-51.906 115.934-115.936 115.934-64.024 0-115.936-51.91-115.936-115.934 0-64.032 51.912-115.934 115.936-115.934 64.030 0 115.936 51.902 115.936 115.934z"></path>
</symbol>
<symbol id="icon-spinner7" viewBox="0 0 1024 1024">
	<title>spinner7</title>
	<path class="path1" d="M416 928c0-53.019 42.981-96 96-96s96 42.981 96 96c0 53.019-42.981 96-96 96s-96-42.981-96-96zM0 512c0-53.019 42.981-96 96-96s96 42.981 96 96c0 53.019-42.981 96-96 96s-96-42.981-96-96zM832 512c0-53.019 42.981-96 96-96s96 42.981 96 96c0 53.019-42.981 96-96 96s-96-42.981-96-96zM121.844 217.844c0-53.019 42.981-96 96-96s96 42.981 96 96c0 53.019-42.981 96-96 96s-96-42.981-96-96zM710.156 806.156c0-53.019 42.981-96 96-96s96 42.981 96 96c0 53.019-42.981 96-96 96s-96-42.981-96-96zM121.844 806.156c0-53.019 42.981-96 96-96s96 42.981 96 96c0 53.019-42.981 96-96 96s-96-42.981-96-96zM710.156 217.844c0-53.019 42.981-96 96-96s96 42.981 96 96c0 53.019-42.981 96-96 96s-96-42.981-96-96z"></path>
</symbol>
<symbol id="icon-spinner9" viewBox="0 0 1024 1024">
	<title>spinner9</title>
	<path class="path1" d="M512 0c-278.748 0-505.458 222.762-511.848 499.974 5.92-241.864 189.832-435.974 415.848-435.974 229.75 0 416 200.576 416 448 0 53.020 42.98 96 96 96s96-42.98 96-96c0-282.77-229.23-512-512-512zM512 1024c278.748 0 505.458-222.762 511.848-499.974-5.92 241.864-189.832 435.974-415.848 435.974-229.75 0-416-200.576-416-448 0-53.020-42.98-96-96-96s-96 42.98-96 96c0 282.77 229.23 512 512 512z"></path>
</symbol>
<symbol id="icon-spinner10" viewBox="0 0 1024 1024">
	<title>spinner10</title>
	<path class="path1" d="M0.042 513.618l-0.022 0.004c0 0 0.012 0.090 0.028 0.222 0.11 3.878 0.55 7.676 1.322 11.352 0.204 1.746 0.428 3.66 0.674 5.774 0.222 1.886 0.46 3.914 0.718 6.078 0.374 2.566 0.77 5.292 1.19 8.176 0.856 5.746 1.8 12.124 2.908 18.958 1.348 6.446 2.804 13.414 4.364 20.864 0.71 3.718 1.776 7.504 2.786 11.406 1.024 3.89 2.078 7.894 3.16 12.004 0.566 2.042 1.040 4.132 1.708 6.208 0.656 2.074 1.32 4.176 1.988 6.3 1.348 4.234 2.726 8.566 4.136 12.988 0.352 1.106 0.708 2.21 1.064 3.324 0.408 1.102 0.814 2.208 1.226 3.316 0.826 2.218 1.658 4.458 2.502 6.714 1.696 4.496 3.422 9.078 5.18 13.742 1.968 4.566 3.97 9.214 6.004 13.934 1.018 2.348 2.044 4.714 3.078 7.098 1.048 2.376 2.27 4.704 3.408 7.074 2.322 4.714 4.678 9.496 7.062 14.332 2.47 4.786 5.208 9.512 7.846 14.328 1.336 2.398 2.68 4.808 4.028 7.23 1.368 2.41 2.902 4.75 4.356 7.14 2.95 4.738 5.93 9.524 8.934 14.348 12.64 18.894 26.676 37.566 42.21 55.278 15.712 17.578 32.726 34.25 50.692 49.602 18.18 15.136 37.264 28.902 56.726 41.114 19.604 12.036 39.644 22.312 59.376 31.144 5.004 2.040 9.964 4.062 14.878 6.066 2.462 0.972 4.868 2.032 7.336 2.918 2.47 0.868 4.93 1.734 7.376 2.594 4.898 1.684 9.678 3.468 14.484 4.992 4.832 1.43 9.604 2.844 14.312 4.242 2.356 0.672 4.66 1.426 7.004 2.012 2.346 0.574 4.676 1.14 6.986 1.704 4.606 1.118 9.142 2.214 13.604 3.296 4.5 0.868 8.926 1.722 13.27 2.558 2.166 0.41 4.31 0.82 6.434 1.222 1.062 0.2 2.118 0.398 3.166 0.598 1.060 0.148 2.118 0.292 3.166 0.442 4.192 0.582 8.292 1.152 12.3 1.71 1.998 0.274 3.972 0.546 5.922 0.816 1.946 0.286 3.904 0.378 5.814 0.57 3.822 0.336 7.544 0.664 11.164 0.98 3.616 0.304 7.104 0.688 10.526 0.738 0.23 0.008 0.452 0.016 0.682 0.026 0.614 34.812 29.008 62.846 63.968 62.846 0.542 0 1.080-0.028 1.62-0.042v0.022c0 0 0.090-0.012 0.224-0.028 3.878-0.11 7.674-0.55 11.35-1.322 1.748-0.204 3.662-0.426 5.776-0.672 1.884-0.222 3.912-0.462 6.076-0.718 2.566-0.376 5.292-0.772 8.176-1.192 5.746-0.856 12.124-1.8 18.958-2.908 6.446-1.348 13.414-2.804 20.864-4.362 3.718-0.712 7.504-1.778 11.406-2.786 3.892-1.026 7.894-2.080 12.004-3.162 2.044-0.566 4.132-1.040 6.208-1.708 2.074-0.656 4.174-1.318 6.3-1.988 4.232-1.348 8.564-2.726 12.988-4.134 1.104-0.354 2.21-0.708 3.324-1.066 1.1-0.406 2.206-0.814 3.316-1.226 2.216-0.824 4.456-1.658 6.714-2.5 4.496-1.698 9.078-3.424 13.74-5.182 4.568-1.968 9.216-3.97 13.936-6.004 2.348-1.018 4.714-2.044 7.098-3.078 2.376-1.048 4.702-2.27 7.074-3.408 4.714-2.322 9.494-4.678 14.33-7.062 4.786-2.47 9.512-5.208 14.328-7.846 2.398-1.336 4.808-2.678 7.23-4.028 2.41-1.366 4.75-2.9 7.14-4.354 4.738-2.952 9.524-5.93 14.35-8.936 18.89-12.64 37.564-26.674 55.278-42.21 17.574-15.712 34.248-32.726 49.602-50.69 15.136-18.182 28.902-37.264 41.112-56.728 12.036-19.602 22.314-39.644 31.142-59.376 2.042-5.002 4.062-9.964 6.068-14.878 0.974-2.462 2.032-4.868 2.918-7.334 0.87-2.472 1.732-4.932 2.592-7.376 1.686-4.898 3.468-9.678 4.994-14.484 1.432-4.832 2.846-9.604 4.24-14.31 0.674-2.358 1.43-4.66 2.016-7.004 0.57-2.348 1.138-4.676 1.702-6.988 1.118-4.606 2.216-9.14 3.296-13.602 0.868-4.502 1.72-8.928 2.558-13.272 0.41-2.164 0.818-4.308 1.222-6.434 0.2-1.060 0.398-2.116 0.596-3.164 0.148-1.062 0.296-2.118 0.444-3.168 0.582-4.19 1.152-8.292 1.708-12.3 0.278-1.996 0.55-3.97 0.82-5.922 0.284-1.946 0.376-3.902 0.568-5.812 0.336-3.822 0.664-7.546 0.98-11.164 0.304-3.616 0.686-7.106 0.738-10.528 0.020-0.534 0.040-1.044 0.058-1.574 35.224-0.146 63.732-28.738 63.732-63.992 0-0.542-0.028-1.080-0.042-1.62h0.022c0 0-0.012-0.090-0.028-0.224-0.11-3.878-0.55-7.674-1.322-11.35-0.204-1.748-0.428-3.662-0.674-5.776-0.222-1.886-0.46-3.914-0.718-6.076-0.374-2.566-0.77-5.294-1.19-8.176-0.856-5.746-1.8-12.124-2.908-18.958-1.348-6.444-2.804-13.414-4.364-20.862-0.71-3.72-1.776-7.506-2.786-11.408-1.024-3.892-2.078-7.894-3.16-12.002-0.566-2.044-1.040-4.134-1.708-6.208-0.656-2.076-1.32-4.174-1.988-6.3-1.348-4.234-2.726-8.566-4.136-12.99-0.352-1.102-0.708-2.21-1.064-3.324-0.408-1.1-0.814-2.206-1.226-3.316-0.826-2.216-1.658-4.454-2.502-6.714-1.696-4.498-3.422-9.080-5.18-13.74-1.968-4.57-3.97-9.216-6.004-13.936-1.020-2.348-2.044-4.714-3.078-7.098-1.048-2.376-2.27-4.702-3.408-7.076-2.322-4.714-4.678-9.494-7.062-14.33-2.47-4.786-5.208-9.512-7.846-14.328-1.336-2.398-2.68-4.808-4.028-7.23-1.368-2.41-2.902-4.75-4.356-7.14-2.95-4.74-5.93-9.524-8.934-14.35-12.64-18.892-26.676-37.564-42.21-55.278-15.712-17.576-32.726-34.25-50.692-49.602-18.18-15.136-37.264-28.902-56.726-41.112-19.604-12.036-39.644-22.314-59.376-31.142-5.004-2.040-9.964-4.062-14.878-6.068-2.462-0.974-4.868-2.032-7.336-2.918-2.47-0.87-4.93-1.734-7.376-2.592-4.898-1.684-9.678-3.468-14.484-4.994-4.832-1.432-9.604-2.846-14.312-4.242-2.356-0.672-4.66-1.428-7.004-2.014-2.346-0.572-4.676-1.138-6.986-1.702-4.606-1.118-9.142-2.216-13.604-3.298-4.5-0.868-8.926-1.72-13.27-2.558-2.166-0.412-4.31-0.82-6.434-1.222-1.062-0.2-2.118-0.398-3.166-0.596-1.060-0.148-2.118-0.296-3.166-0.442-4.192-0.584-8.292-1.154-12.3-1.71-1.998-0.276-3.972-0.55-5.922-0.82-1.946-0.284-3.904-0.376-5.814-0.57-3.822-0.336-7.544-0.664-11.164-0.98-3.616-0.304-7.104-0.686-10.526-0.738-0.852-0.032-1.674-0.062-2.512-0.092-0.65-34.78-29.028-62.778-63.966-62.778-0.542 0-1.080 0.028-1.62 0.042l-0.002-0.022c0 0-0.090 0.012-0.222 0.028-3.878 0.11-7.676 0.55-11.352 1.322-1.748 0.204-3.662 0.426-5.776 0.672-1.884 0.222-3.912 0.462-6.076 0.718-2.566 0.376-5.292 0.772-8.176 1.192-5.746 0.856-12.124 1.8-18.958 2.908-6.446 1.348-13.414 2.804-20.864 4.362-3.718 0.712-7.504 1.778-11.406 2.786-3.892 1.026-7.894 2.080-12.004 3.162-2.044 0.566-4.132 1.040-6.208 1.708-2.074 0.656-4.174 1.318-6.3 1.988-4.232 1.348-8.564 2.726-12.988 4.134-1.104 0.354-2.21 0.708-3.324 1.066-1.1 0.406-2.206 0.814-3.316 1.226-2.216 0.824-4.456 1.658-6.714 2.5-4.496 1.698-9.078 3.424-13.74 5.182-4.568 1.968-9.216 3.97-13.936 6.004-2.348 1.018-4.714 2.044-7.098 3.078-2.376 1.048-4.702 2.27-7.074 3.408-4.714 2.322-9.494 4.678-14.33 7.062-4.786 2.47-9.512 5.208-14.328 7.846-2.398 1.336-4.808 2.678-7.23 4.028-2.41 1.366-4.75 2.9-7.14 4.354-4.738 2.952-9.524 5.93-14.35 8.936-18.89 12.64-37.564 26.674-55.278 42.21-17.574 15.712-34.248 32.726-49.602 50.69-15.136 18.182-28.902 37.264-41.112 56.728-12.036 19.602-22.314 39.644-31.142 59.376-2.042 5.002-4.062 9.964-6.068 14.878-0.974 2.462-2.032 4.868-2.918 7.334-0.87 2.472-1.732 4.932-2.592 7.376-1.686 4.898-3.468 9.678-4.994 14.484-1.432 4.832-2.846 9.604-4.24 14.31-0.674 2.358-1.43 4.66-2.016 7.004-0.57 2.348-1.138 4.676-1.702 6.988-1.118 4.606-2.216 9.14-3.296 13.602-0.868 4.502-1.72 8.928-2.558 13.272-0.41 2.164-0.818 4.308-1.222 6.434-0.2 1.060-0.398 2.116-0.596 3.164-0.148 1.062-0.296 2.118-0.444 3.168-0.582 4.19-1.152 8.292-1.708 12.3-0.278 1.996-0.55 3.97-0.82 5.922-0.284 1.946-0.376 3.902-0.568 5.812-0.336 3.822-0.664 7.546-0.98 11.164-0.304 3.616-0.686 7.106-0.738 10.528-0.020 0.548-0.040 1.076-0.058 1.62-34.376 1.112-61.902 29.304-61.902 63.946 0 0.542 0.028 1.078 0.042 1.618zM73.518 448.706c0.042-0.196 0.086-0.384 0.128-0.58 0.644-3.248 1.632-6.542 2.556-9.942 0.934-3.388 1.894-6.876 2.88-10.454 0.516-1.78 0.934-3.602 1.546-5.406 0.596-1.802 1.202-3.628 1.81-5.476 1.218-3.682 2.464-7.45 3.736-11.294 0.316-0.958 0.634-1.924 0.956-2.892 0.37-0.954 0.74-1.914 1.114-2.876 0.746-1.924 1.5-3.868 2.26-5.83 1.52-3.904 3.070-7.882 4.646-11.93 1.768-3.96 3.566-7.99 5.392-12.080 0.908-2.038 1.824-4.090 2.746-6.156 0.932-2.060 2.036-4.072 3.052-6.126 2.070-4.084 4.17-8.222 6.294-12.412 2.202-4.142 4.654-8.224 6.998-12.392 1.184-2.074 2.374-4.16 3.57-6.256 1.21-2.086 2.586-4.102 3.876-6.166 2.616-4.098 5.256-8.232 7.918-12.402 11.234-16.298 23.632-32.398 37.33-47.638 13.874-15.104 28.842-29.404 44.598-42.548 15.974-12.928 32.686-24.65 49.676-35.022 17.13-10.194 34.6-18.838 51.734-26.258 4.35-1.7 8.662-3.382 12.934-5.050 2.136-0.812 4.216-1.71 6.36-2.444 2.146-0.714 4.28-1.428 6.404-2.136 4.25-1.386 8.382-2.888 12.548-4.142 4.184-1.174 8.314-2.332 12.392-3.474 2.038-0.55 4.026-1.19 6.054-1.662 2.030-0.458 4.044-0.914 6.044-1.368 3.978-0.91 7.896-1.806 11.748-2.688 3.888-0.686 7.71-1.36 11.462-2.022 1.868-0.33 3.716-0.658 5.546-0.98 0.914-0.162 1.824-0.324 2.728-0.484 0.916-0.112 1.828-0.222 2.734-0.332 3.612-0.448 7.148-0.882 10.604-1.31 1.72-0.216 3.422-0.432 5.102-0.644 1.674-0.226 3.364-0.266 5.010-0.408 3.292-0.238 6.498-0.472 9.616-0.7 3.11-0.218 6.11-0.524 9.058-0.508 5.848-0.132 11.32-0.256 16.38-0.372 4.664 0.168 8.948 0.324 12.818 0.462 1.914 0.054 3.726 0.108 5.432 0.156 2.122 0.134 4.108 0.26 5.958 0.378 2.13 0.138 4.060 0.266 5.82 0.38 3.256 0.51 6.592 0.782 9.99 0.782 0.466 0 0.93-0.026 1.396-0.036 0.132 0.008 0.224 0.014 0.224 0.014v-0.020c31.14-0.778 56.75-23.784 61.556-53.754 0.542 0.12 1.064 0.236 1.612 0.356 3.246 0.644 6.542 1.632 9.942 2.556 3.386 0.934 6.876 1.894 10.454 2.88 1.778 0.516 3.602 0.934 5.404 1.546 1.802 0.596 3.63 1.202 5.478 1.812 3.68 1.218 7.448 2.464 11.292 3.736 0.96 0.316 1.924 0.634 2.892 0.956 0.956 0.37 1.914 0.74 2.876 1.112 1.926 0.746 3.868 1.5 5.83 2.26 3.904 1.52 7.884 3.070 11.932 4.646 3.96 1.768 7.988 3.566 12.080 5.392 2.038 0.908 4.088 1.824 6.156 2.746 2.060 0.932 4.072 2.036 6.126 3.054 4.082 2.070 8.222 4.17 12.41 6.294 4.144 2.202 8.226 4.654 12.394 6.998 2.074 1.184 4.16 2.374 6.256 3.572 2.086 1.21 4.102 2.586 6.166 3.876 4.098 2.616 8.23 5.256 12.402 7.918 16.296 11.234 32.398 23.632 47.636 37.33 15.104 13.874 29.406 28.842 42.55 44.598 12.928 15.974 24.648 32.686 35.020 49.676 10.196 17.13 18.84 34.6 26.26 51.736 1.698 4.348 3.382 8.662 5.050 12.932 0.812 2.136 1.71 4.216 2.444 6.36 0.714 2.146 1.428 4.28 2.136 6.404 1.386 4.25 2.888 8.384 4.142 12.548 1.174 4.184 2.33 8.316 3.474 12.392 0.55 2.038 1.19 4.026 1.66 6.054 0.46 2.030 0.916 4.046 1.368 6.046 0.91 3.978 1.808 7.896 2.688 11.748 0.688 3.888 1.362 7.71 2.024 11.462 0.33 1.868 0.656 3.716 0.98 5.548 0.162 0.914 0.324 1.824 0.484 2.728 0.11 0.916 0.222 1.828 0.332 2.734 0.446 3.612 0.882 7.148 1.31 10.604 0.216 1.72 0.432 3.42 0.642 5.1 0.226 1.674 0.268 3.364 0.41 5.010 0.238 3.292 0.472 6.498 0.7 9.616 0.218 3.11 0.524 6.11 0.508 9.058 0.132 5.848 0.256 11.32 0.372 16.38-0.168 4.664-0.324 8.948-0.462 12.818-0.054 1.914-0.108 3.726-0.156 5.432-0.134 2.122-0.26 4.108-0.378 5.958-0.138 2.13-0.266 4.060-0.38 5.82-0.498 3.256-0.768 6.592-0.768 9.99 0 0.468 0.026 0.93 0.036 1.396-0.008 0.132-0.016 0.224-0.016 0.224h0.022c0.768 30.766 23.236 56.128 52.682 61.37-0.066 0.296-0.13 0.584-0.198 0.884-0.644 3.248-1.632 6.542-2.556 9.942-0.934 3.388-1.894 6.876-2.88 10.454-0.516 1.78-0.934 3.602-1.546 5.406-0.596 1.802-1.202 3.628-1.81 5.476-1.218 3.682-2.464 7.45-3.736 11.294-0.316 0.958-0.634 1.924-0.956 2.892-0.37 0.954-0.74 1.914-1.114 2.876-0.746 1.924-1.5 3.868-2.26 5.83-1.52 3.904-3.070 7.882-4.646 11.93-1.768 3.96-3.566 7.99-5.392 12.080-0.908 2.038-1.824 4.090-2.746 6.156-0.932 2.060-2.036 4.072-3.052 6.126-2.070 4.084-4.17 8.222-6.294 12.412-2.202 4.142-4.654 8.224-6.998 12.392-1.184 2.074-2.374 4.16-3.57 6.256-1.21 2.086-2.586 4.102-3.876 6.166-2.616 4.098-5.256 8.232-7.918 12.402-11.234 16.298-23.632 32.398-37.33 47.638-13.874 15.104-28.842 29.404-44.598 42.548-15.974 12.928-32.686 24.65-49.676 35.022-17.13 10.194-34.6 18.838-51.734 26.258-4.35 1.7-8.662 3.382-12.934 5.050-2.136 0.812-4.216 1.71-6.36 2.444-2.146 0.714-4.28 1.428-6.404 2.136-4.25 1.386-8.382 2.888-12.548 4.142-4.184 1.174-8.314 2.332-12.392 3.474-2.038 0.55-4.026 1.19-6.054 1.662-2.030 0.458-4.044 0.914-6.044 1.368-3.978 0.91-7.896 1.806-11.748 2.688-3.888 0.686-7.71 1.36-11.462 2.022-1.868 0.33-3.716 0.658-5.546 0.98-0.914 0.162-1.824 0.324-2.728 0.484-0.916 0.112-1.828 0.222-2.734 0.332-3.612 0.448-7.148 0.882-10.604 1.31-1.72 0.216-3.422 0.432-5.102 0.644-1.674 0.226-3.364 0.266-5.010 0.408-3.292 0.238-6.498 0.472-9.616 0.7-3.11 0.218-6.11 0.524-9.058 0.508-5.848 0.132-11.32 0.256-16.38 0.372-4.664-0.168-8.948-0.324-12.818-0.462-1.914-0.054-3.726-0.108-5.432-0.156-2.122-0.134-4.108-0.26-5.958-0.378-2.13-0.138-4.060-0.266-5.82-0.38-3.256-0.51-6.592-0.782-9.99-0.782-0.466 0-0.93 0.026-1.396 0.036-0.132-0.008-0.224-0.014-0.224-0.014v0.020c-31.004 0.774-56.524 23.586-61.488 53.364-3.2-0.64-6.446-1.61-9.792-2.522-3.386-0.934-6.876-1.894-10.454-2.878-1.778-0.516-3.602-0.938-5.404-1.546-1.802-0.598-3.63-1.204-5.478-1.812-3.68-1.218-7.448-2.464-11.292-3.738-0.96-0.316-1.924-0.632-2.892-0.954-0.956-0.372-1.914-0.742-2.876-1.114-1.926-0.746-3.868-1.5-5.83-2.258-3.904-1.524-7.884-3.070-11.932-4.648-3.96-1.77-7.988-3.566-12.080-5.39-2.038-0.91-4.088-1.824-6.156-2.746-2.060-0.934-4.072-2.036-6.126-3.054-4.082-2.070-8.222-4.172-12.41-6.296-4.144-2.2-8.226-4.652-12.394-6.996-2.074-1.184-4.16-2.376-6.256-3.57-2.086-1.21-4.102-2.586-6.166-3.878-4.098-2.614-8.23-5.254-12.402-7.918-16.296-11.23-32.398-23.632-47.636-37.328-15.104-13.876-29.406-28.84-42.55-44.598-12.928-15.972-24.648-32.684-35.020-49.676-10.196-17.128-18.84-34.602-26.26-51.734-1.698-4.352-3.382-8.664-5.050-12.934-0.812-2.136-1.71-4.218-2.444-6.36-0.714-2.148-1.428-4.282-2.136-6.406-1.386-4.25-2.888-8.382-4.142-12.546-1.174-4.184-2.33-8.316-3.474-12.394-0.55-2.036-1.19-4.024-1.66-6.054-0.46-2.028-0.916-4.042-1.368-6.042-0.91-3.98-1.808-7.898-2.688-11.75-0.688-3.886-1.362-7.71-2.024-11.46-0.33-1.868-0.656-3.718-0.98-5.546-0.162-0.914-0.324-1.824-0.484-2.73-0.11-0.914-0.222-1.828-0.332-2.734-0.446-3.61-0.882-7.148-1.31-10.602-0.216-1.722-0.432-3.422-0.642-5.102-0.226-1.676-0.268-3.364-0.41-5.012-0.238-3.29-0.472-6.496-0.7-9.614-0.218-3.11-0.524-6.11-0.508-9.058-0.132-5.848-0.256-11.32-0.372-16.382 0.168-4.664 0.324-8.946 0.462-12.816 0.054-1.914 0.108-3.726 0.156-5.434 0.134-2.122 0.26-4.106 0.378-5.958 0.138-2.128 0.266-4.058 0.38-5.82 0.496-3.26 0.766-6.596 0.766-9.994 0-0.466-0.026-0.93-0.036-1.396 0.008-0.132 0.016-0.224 0.016-0.224h-0.022c-0.78-31.38-24.134-57.154-54.44-61.674z"></path>
</symbol>
<symbol id="icon-search" viewBox="0 0 1024 1024">
	<title>search</title>
	<path class="path1" d="M992.262 871.396l-242.552-206.294c-25.074-22.566-51.89-32.926-73.552-31.926 57.256-67.068 91.842-154.078 91.842-249.176 0-212.078-171.922-384-384-384-212.076 0-384 171.922-384 384s171.922 384 384 384c95.098 0 182.108-34.586 249.176-91.844-1 21.662 9.36 48.478 31.926 73.552l206.294 242.552c35.322 39.246 93.022 42.554 128.22 7.356s31.892-92.898-7.354-128.22zM384 640c-141.384 0-256-114.616-256-256s114.616-256 256-256 256 114.616 256 256-114.614 256-256 256z"></path>
</symbol>
<symbol id="icon-cog2" viewBox="0 0 1024 1024">
	<title>cog2</title>
	<path class="path1" d="M933.79 610.25c-53.726-93.054-21.416-212.304 72.152-266.488l-100.626-174.292c-28.75 16.854-62.176 26.518-97.846 26.518-107.536 0-194.708-87.746-194.708-195.99h-201.258c0.266 33.41-8.074 67.282-25.958 98.252-53.724 93.056-173.156 124.702-266.862 70.758l-100.624 174.292c28.97 16.472 54.050 40.588 71.886 71.478 53.638 92.908 21.512 211.92-71.708 266.224l100.626 174.292c28.65-16.696 61.916-26.254 97.4-26.254 107.196 0 194.144 87.192 194.7 194.958h201.254c-0.086-33.074 8.272-66.57 25.966-97.218 53.636-92.906 172.776-124.594 266.414-71.012l100.626-174.29c-28.78-16.466-53.692-40.498-71.434-71.228zM512 719.332c-114.508 0-207.336-92.824-207.336-207.334 0-114.508 92.826-207.334 207.336-207.334 114.508 0 207.332 92.826 207.332 207.334-0.002 114.51-92.824 207.334-207.332 207.334z"></path>
</symbol>
<symbol id="icon-menu" viewBox="0 0 1024 1024">
	<title>menu</title>
	<path class="path1" d="M64 192h896v192h-896zM64 448h896v192h-896zM64 704h896v192h-896z"></path>
</symbol>
<symbol id="icon-cloud-download2" viewBox="0 0 1024 1024">
	<title>cloud-download2</title>
	<path class="path1" d="M891.004 360.060c-3.242-128.698-108.458-232.060-237.862-232.060-75.792 0-143.266 35.494-186.854 90.732-24.442-31.598-62.69-51.96-105.708-51.96-73.81 0-133.642 59.876-133.642 133.722 0 6.436 0.48 12.76 1.364 18.954-11.222-2.024-22.766-3.138-34.57-3.138-106.998-0.002-193.732 86.786-193.732 193.842 0 107.062 86.734 193.848 193.73 193.848h91.76l226.51 234.51 226.51-234.51 111.482-0.012c96.138-0.184 174.008-78.21 174.008-174.446 0-82.090-56.678-150.9-132.996-169.482zM512 832l-192-192h128v-192h128v192h128l-192 192z"></path>
</symbol>
<symbol id="icon-cloud-upload2" viewBox="0 0 1024 1024">
	<title>cloud-upload2</title>
	<path class="path1" d="M892.268 386.49c2.444-11.11 3.732-22.648 3.732-34.49 0-88.366-71.634-160-160-160-14.222 0-28.014 1.868-41.132 5.352-24.798-77.352-97.29-133.352-182.868-133.352-87.348 0-161.054 58.336-184.326 138.17-22.742-6.622-46.792-10.17-71.674-10.17-141.384 0-256 114.616-256 256 0 141.388 114.616 256 256 256h128v192h256v-192h224c88.366 0 160-71.632 160-160 0-78.72-56.854-144.162-131.732-157.51zM576 640v192h-128v-192h-160l224-224 224 224h-160z"></path>
</symbol>
<symbol id="icon-download2" viewBox="0 0 1024 1024">
	<title>download2</title>
	<path class="path1" d="M896 512h-160l-224 224-224-224h-160l-128 256v64h1024v-64l-128-256zM0 896h1024v64h-1024v-64zM576 320v-256h-128v256h-224l288 288 288-288h-224z"></path>
</symbol>
<symbol id="icon-upload2" viewBox="0 0 1024 1024">
	<title>upload2</title>
	<path class="path1" d="M0 896h1024v64h-1024zM1024 768v64h-1024v-64l128-256h256v128h256v-128h256zM224 320l288-288 288 288h-224v256h-128v-256z"></path>
</symbol>
<symbol id="icon-download3" viewBox="0 0 1024 1024">
	<title>download3</title>
	<path class="path1" d="M736 448l-256 256-256-256h160v-384h192v384zM480 704h-480v256h960v-256h-480zM896 832h-128v-64h128v64z"></path>
</symbol>
<symbol id="icon-upload3" viewBox="0 0 1024 1024">
	<title>upload3</title>
	<path class="path1" d="M480 704h-480v256h960v-256h-480zM896 832h-128v-64h128v64zM224 320l256-256 256 256h-160v320h-192v-320z"></path>
</symbol>
<symbol id="icon-link" viewBox="0 0 1024 1024">
	<title>link</title>
	<path class="path1" d="M440.236 635.766c-13.31 0-26.616-5.076-36.77-15.23-95.134-95.136-95.134-249.934 0-345.070l192-192c46.088-46.086 107.36-71.466 172.534-71.466s126.448 25.38 172.536 71.464c95.132 95.136 95.132 249.934 0 345.070l-87.766 87.766c-20.308 20.308-53.23 20.308-73.54 0-20.306-20.306-20.306-53.232 0-73.54l87.766-87.766c54.584-54.586 54.584-143.404 0-197.99-26.442-26.442-61.6-41.004-98.996-41.004s-72.552 14.562-98.996 41.006l-192 191.998c-54.586 54.586-54.586 143.406 0 197.992 20.308 20.306 20.306 53.232 0 73.54-10.15 10.152-23.462 15.23-36.768 15.23z"></path>
	<path class="path2" d="M256 1012c-65.176 0-126.45-25.38-172.534-71.464-95.134-95.136-95.134-249.934 0-345.070l87.764-87.764c20.308-20.306 53.234-20.306 73.54 0 20.308 20.306 20.308 53.232 0 73.54l-87.764 87.764c-54.586 54.586-54.586 143.406 0 197.992 26.44 26.44 61.598 41.002 98.994 41.002s72.552-14.562 98.998-41.006l192-191.998c54.584-54.586 54.584-143.406 0-197.992-20.308-20.308-20.306-53.232 0-73.54 20.306-20.306 53.232-20.306 73.54 0.002 95.132 95.134 95.132 249.932 0.002 345.068l-192.002 192c-46.090 46.088-107.364 71.466-172.538 71.466z"></path>
</symbol>
<symbol id="icon-arrow-up-left2" viewBox="0 0 1024 1024">
	<title>arrow-up-left2</title>
	<path class="path1" d="M877.254 786.746l-530.744-530.746h229.49c35.346 0 64-28.654 64-64s-28.654-64-64-64h-384c-25.886 0-49.222 15.592-59.128 39.508-3.282 7.924-4.84 16.242-4.838 24.492h-0.034v384c0 35.346 28.654 64 64 64s64-28.654 64-64v-229.49l530.746 530.744c12.496 12.498 28.876 18.746 45.254 18.746s32.758-6.248 45.254-18.746c24.994-24.992 24.994-65.516 0-90.508z"></path>
</symbol>
<symbol id="icon-arrow-up2" viewBox="0 0 1024 1024">
	<title>arrow-up2</title>
	<path class="path1" d="M877.254 402.746l-320-320c-24.992-24.994-65.514-24.994-90.508 0l-320 320c-24.994 24.994-24.994 65.516 0 90.51 24.994 24.996 65.516 24.996 90.51 0l210.744-210.746v613.49c0 35.346 28.654 64 64 64s64-28.654 64-64v-613.49l210.746 210.746c12.496 12.496 28.876 18.744 45.254 18.744s32.758-6.248 45.254-18.746c24.994-24.994 24.994-65.514 0-90.508z"></path>
</symbol>
<symbol id="icon-arrow-up-right2" viewBox="0 0 1024 1024">
	<title>arrow-up-right2</title>
	<path class="path1" d="M237.254 877.254l530.746-530.744v229.49c0 35.346 28.654 64 64 64s64-28.654 64-64v-384c0-25.884-15.594-49.222-39.508-59.126-7.924-3.284-16.242-4.84-24.492-4.838v-0.036h-384c-35.346 0-64 28.654-64 64 0 35.348 28.654 64 64 64h229.49l-530.744 530.746c-12.498 12.496-18.746 28.876-18.746 45.254s6.248 32.758 18.746 45.254c24.992 24.994 65.516 24.994 90.508 0z"></path>
</symbol>
<symbol id="icon-arrow-right2" viewBox="0 0 1024 1024">
	<title>arrow-right2</title>
	<path class="path1" d="M621.254 877.254l320-320c24.994-24.992 24.994-65.516 0-90.51l-320-320c-24.994-24.992-65.516-24.992-90.51 0-24.994 24.994-24.994 65.516 0 90.51l210.746 210.746h-613.49c-35.346 0-64 28.654-64 64s28.654 64 64 64h613.49l-210.746 210.746c-12.496 12.496-18.744 28.876-18.744 45.254s6.248 32.758 18.744 45.254c24.994 24.994 65.516 24.994 90.51 0z"></path>
</symbol>
<symbol id="icon-arrow-down-right2" viewBox="0 0 1024 1024">
	<title>arrow-down-right2</title>
	<path class="path1" d="M146.746 237.254l530.742 530.746h-229.488c-35.346 0-64 28.654-64 64s28.654 64 64 64h384c25.884 0 49.222-15.594 59.126-39.508 3.284-7.924 4.84-16.242 4.838-24.492h0.036v-384c0-35.346-28.654-64-64-64-35.348 0-64 28.654-64 64v229.49l-530.746-530.744c-12.496-12.498-28.874-18.746-45.254-18.746s-32.758 6.248-45.254 18.746c-24.994 24.992-24.994 65.516 0 90.508z"></path>
</symbol>
<symbol id="icon-arrow-down2" viewBox="0 0 1024 1024">
	<title>arrow-down2</title>
	<path class="path1" d="M877.254 621.254l-320 320c-24.992 24.994-65.514 24.994-90.508 0l-320-320c-24.994-24.994-24.994-65.516 0-90.51 24.994-24.996 65.516-24.996 90.51 0l210.744 210.746v-613.49c0-35.346 28.654-64 64-64s64 28.654 64 64v613.49l210.746-210.746c12.496-12.496 28.876-18.744 45.254-18.744s32.758 6.248 45.254 18.746c24.994 24.994 24.994 65.514 0 90.508z"></path>
</symbol>
<symbol id="icon-arrow-down-left2" viewBox="0 0 1024 1024">
	<title>arrow-down-left2</title>
	<path class="path1" d="M786.744 146.744l-530.744 530.744v-229.49c0-35.346-28.654-64-64-64s-64 28.654-64 64v384.002c0 25.886 15.592 49.222 39.508 59.128 7.924 3.282 16.242 4.84 24.492 4.836v0.036l384-0.002c35.344 0 64-28.654 64-63.998 0-35.348-28.656-64-64-64h-229.49l530.744-530.746c12.496-12.496 18.746-28.876 18.746-45.256 0-16.376-6.25-32.758-18.746-45.254-24.992-24.992-65.518-24.992-90.51 0v0z"></path>
</symbol>
<symbol id="icon-arrow-left2" viewBox="0 0 1024 1024">
	<title>arrow-left2</title>
	<path class="path1" d="M402.746 877.254l-320-320c-24.994-24.992-24.994-65.516 0-90.51l320-320c24.994-24.992 65.516-24.992 90.51 0 24.994 24.994 24.994 65.516 0 90.51l-210.746 210.746h613.49c35.346 0 64 28.654 64 64s-28.654 64-64 64h-613.49l210.746 210.746c12.496 12.496 18.744 28.876 18.744 45.254s-6.248 32.758-18.744 45.254c-24.994 24.994-65.516 24.994-90.51 0z"></path>
</symbol>
<symbol id="icon-circle-up" viewBox="0 0 1024 1024">
	<title>circle-up</title>
	<path class="path1" d="M0 512c0 282.77 229.23 512 512 512s512-229.23 512-512-229.23-512-512-512-512 229.23-512 512zM928 512c0 229.75-186.25 416-416 416s-416-186.25-416-416 186.25-416 416-416 416 186.25 416 416z"></path>
	<path class="path2" d="M706.744 669.256l90.512-90.512-285.256-285.254-285.254 285.256 90.508 90.508 194.746-194.744z"></path>
</symbol>
<symbol id="icon-circle-right" viewBox="0 0 1024 1024">
	<title>circle-right</title>
	<path class="path1" d="M512 0c-282.77 0-512 229.23-512 512s229.23 512 512 512 512-229.23 512-512-229.23-512-512-512zM512 928c-229.75 0-416-186.25-416-416s186.25-416 416-416 416 186.25 416 416-186.25 416-416 416z"></path>
	<path class="path2" d="M354.744 706.744l90.512 90.512 285.254-285.256-285.256-285.254-90.508 90.508 194.744 194.746z"></path>
</symbol>
<symbol id="icon-circle-down" viewBox="0 0 1024 1024">
	<title>circle-down</title>
	<path class="path1" d="M1024 512c0-282.77-229.23-512-512-512s-512 229.23-512 512 229.23 512 512 512 512-229.23 512-512zM96 512c0-229.75 186.25-416 416-416s416 186.25 416 416-186.25 416-416 416-416-186.25-416-416z"></path>
	<path class="path2" d="M317.256 354.744l-90.512 90.512 285.256 285.254 285.254-285.256-90.508-90.508-194.746 194.744z"></path>
</symbol>
<symbol id="icon-circle-left" viewBox="0 0 1024 1024">
	<title>circle-left</title>
	<path class="path1" d="M512 1024c282.77 0 512-229.23 512-512s-229.23-512-512-512-512 229.23-512 512 229.23 512 512 512zM512 96c229.75 0 416 186.25 416 416s-186.25 416-416 416-416-186.25-416-416 186.25-416 416-416z"></path>
	<path class="path2" d="M669.256 317.256l-90.512-90.512-285.254 285.256 285.256 285.254 90.508-90.508-194.744-194.746z"></path>
</symbol>
<symbol id="icon-heart" viewBox="0 0 1024 1024">
	<title>heart</title>
	<path class="path1" d="M934.176 168.48c-116.128-115.072-301.824-117.472-422.112-9.216-120.32-108.256-305.952-105.856-422.144 9.216-119.712 118.528-119.712 310.688 0 429.28 34.208 33.888 353.696 350.112 353.696 350.112 37.856 37.504 99.072 37.504 136.896 0 0 0 349.824-346.304 353.696-350.112 119.744-118.592 119.744-310.752-0.032-429.28zM888.576 552.576l-353.696 350.112c-12.576 12.512-33.088 12.512-45.6 0l-353.696-350.112c-94.4-93.44-94.4-245.472 0-338.912 91.008-90.080 237.312-93.248 333.088-7.104l43.392 39.040 43.36-39.040c95.808-86.144 242.112-83.008 333.12 7.104 94.4 93.408 94.4 245.44 0.032 338.912zM296.096 240.032c8.864 0 16 7.168 16 16s-7.168 16-16 16h-0.032c-57.408 0-103.968 46.56-103.968 103.968v0.032c0 8.832-7.168 16-16 16s-16-7.168-16-16v0c0-75.072 60.832-135.904 135.872-135.968 0.064 0 0.064-0.032 0.128-0.032z"></path>
</symbol>
<symbol id="icon-settings" viewBox="0 0 1024 1024">
	<title>settings</title>
	<path class="path1" d="M972.512 405.76l-98.048-19.648c-4.928-14.176-10.752-27.936-17.184-41.248l55.552-83.328c16.928-25.376 13.568-59.2-8-80.736l-61.568-61.568c-12.384-12.384-28.736-18.752-45.312-18.752-12.256 0-24.64 3.52-35.424 10.752l-83.328 55.52c-13.376-6.464-27.136-12.224-41.312-17.152l-19.648-98.080c-5.952-29.952-32.256-51.456-62.752-51.456h-87.040c-30.496 0-56.768 21.536-62.752 51.456l-19.648 98.080c-14.176 4.928-27.936 10.72-41.248 17.152l-83.296-55.52c-10.848-7.232-23.2-10.752-35.488-10.752-16.544 0-32.896 6.368-45.28 18.752l-61.536 61.568c-21.568 21.568-24.928 55.36-8 80.736l55.52 83.328c-6.464 13.344-12.224 27.104-17.152 41.28l-98.112 19.616c-29.92 5.984-51.456 32.256-51.456 62.752v87.040c0 30.496 21.536 56.8 51.456 62.752l98.080 19.68c4.928 14.176 10.72 27.936 17.152 41.248l-55.488 83.328c-16.928 25.376-13.568 59.2 8 80.736l61.568 61.568c12.384 12.384 28.736 18.752 45.28 18.752 12.288 0 24.672-3.552 35.456-10.752l83.328-55.552c13.344 6.496 27.104 12.256 41.28 17.184l19.616 98.048c5.984 29.952 32.256 51.488 62.752 51.488h87.040c30.496 0 56.8-21.568 62.752-51.488l19.68-98.048c14.176-4.928 27.936-10.752 41.248-17.184l83.328 55.552c10.816 7.2 23.2 10.752 35.424 10.752 16.576 0 32.928-6.368 45.312-18.752l61.568-61.568c21.568-21.568 24.928-55.36 8-80.736l-55.552-83.328c6.496-13.376 12.256-27.136 17.184-41.312l98.048-19.616c29.92-5.92 51.488-32.256 51.488-62.752v-87.040c0-30.496-21.568-56.768-51.488-62.752zM861.888 575.2c-22.24 4.448-40.448 20.32-47.872 41.76-4.128 11.808-8.928 23.264-14.304 34.368-9.952 20.448-8.256 44.576 4.32 63.424l55.552 83.328-61.568 61.568-83.328-55.552c-10.688-7.136-23.072-10.752-35.488-10.752-9.504 0-19.072 2.112-27.872 6.368-11.136 5.376-22.56 10.24-34.432 14.368-21.376 7.424-37.248 25.632-41.696 47.872l-19.68 98.112h-87.040l-19.616-98.112c-4.448-22.24-20.32-40.448-41.728-47.872-11.808-4.128-23.296-8.928-34.4-14.304-8.832-4.32-18.368-6.432-27.904-6.432-12.448 0-24.8 3.616-35.488 10.752l-83.328 55.552-61.568-61.568 55.52-83.328c12.576-18.88 14.208-43.008 4.384-63.36-5.376-11.136-10.208-22.56-14.336-34.432-7.424-21.376-25.664-37.248-47.872-41.696l-98.080-19.68-0.064-87.072 98.112-19.616c22.208-4.448 40.448-20.32 47.872-41.728 4.128-11.808 8.896-23.296 14.304-34.4 9.92-20.416 8.256-44.544-4.352-63.392l-55.488-83.328 61.536-61.568 83.328 55.52c10.688 7.136 23.072 10.752 35.488 10.752 9.504 0 19.040-2.112 27.872-6.368 11.104-5.376 22.56-10.208 34.4-14.336 21.408-7.424 37.28-25.664 41.728-47.872l19.648-98.080 87.040-0.032 19.616 98.112c4.448 22.208 20.32 40.448 41.76 47.872 11.808 4.128 23.264 8.896 34.368 14.304 8.864 4.288 18.368 6.4 27.936 6.4 12.448 0 24.8-3.616 35.488-10.752l83.328-55.52 61.568 61.568-55.552 83.328c-12.576 18.88-14.176 42.976-4.384 63.36 5.376 11.104 10.24 22.56 14.368 34.4 7.424 21.408 25.632 37.28 47.872 41.728l98.048 19.648 0.096 87.040-98.112 19.648zM512 288.032c-123.68 0-224 100.32-224 224 0 123.712 100.32 224 224 224s224-100.32 224-224c0-123.68-100.32-224-224-224zM512 708.064c-108.224 0-196-87.808-196-196 0-108.224 87.776-196 196-196 108.192 0 196 87.776 196 196 0 108.192-87.808 196-196 196zM512 384.032c-70.72 0-128 57.28-128 128 0 70.688 57.28 128 128 128 70.688 0 128-57.312 128-128s-57.312-128-128-128zM512 608.064c-52.992 0-96-43.008-96-96s43.008-96 96-96 96 43.008 96 96c0 52.992-43.008 96-96 96z"></path>
</symbol>
</defs>
</svg>
